<!--?xml version="1.0" standalone="no"?-->
              <svg id="sw-js-blob-svg" viewBox="0 0 100 100" xmlns="http://www.w3.org/2000/svg" version="1.1">
                    <defs> 
                        <linearGradient id="sw-gradient" x1="0" x2="1" y1="1" y2="0">
                            <stop id="stop1" stop-color="rgba(72, 107, 240, 1)" offset="0%"></stop>
                            <stop id="stop2" stop-color="rgba(135.611, 158.389, 244.944, 1)" offset="100%"></stop>
                        </linearGradient>
                    </defs>
                <path fill="url(#sw-gradient)" d="M26.4,-29.1C33.9,-25.1,39.5,-16.6,40.9,-7.4C42.4,1.8,39.5,11.5,34,18.3C28.5,25.1,20.2,29,11.5,32.6C2.7,36.3,-6.5,39.8,-14.9,38C-23.3,36.2,-30.9,29.2,-35.5,20.7C-40.2,12.3,-41.8,2.3,-40.6,-7.6C-39.4,-17.5,-35.3,-27.3,-28,-31.3C-20.8,-35.4,-10.4,-33.6,-0.5,-33C9.4,-32.4,18.9,-33.1,26.4,-29.1Z" width="100%" height="100%" transform="translate(50 50)" style="transition: all 0.3s ease 0s;" stroke-width="0"></path>
              </svg>