<svg xmlns="http://www.w3.org/2000/svg" xmlns:xlink="http://www.w3.org/1999/xlink" width="658.218" height="581.563" viewBox="0 0 658.218 581.563">
  <defs>
    <style>
      .cls-1 {
        fill-rule: evenodd;
        fill: url(#linear-gradient);
      }
    </style>
    <linearGradient id="linear-gradient" x1="37.438" y1="301.094" x2="695.656" y2="301.094" gradientUnits="userSpaceOnUse">
      <stop offset="0" stop-color="#486bf0"/>
      <stop offset="1" stop-color="#8bb9ff"/>
    </linearGradient>
  </defs>
  <path id="Эллипс_1" data-name="Эллипс 1" class="cls-1" d="M353.2,61.249c33.261,33.091,66.534,65.265,110.165,82.386,42.829,18.6,90.4,25.946,129.588,38.272,39.51,12.161,69.891,30.007,86.63,65.023,8.383,16.879,13.529,37.9,15.333,60.459,0.453,5.638.7,11.37,0.745,17.153q0.033,4.337-.088,8.707T695.183,342a247.021,247.021,0,0,1-4.636,34.766c-9.878,46.819-32.087,74.114-63.494,88.462-31.022,14.909-71.479,16.513-108.931,24.263-37.928,5.479-72.715,17.69-101.243,29.828-29.414,12.41-52.908,25.181-89.279,37.71-33.927,11.5-80.677,26.233-120.61,32.147a235.671,235.671,0,0,1-29.42,2.664c-4.752.1-9.426,0.01-14.022-.306q-3.449-.237-6.837-0.646t-6.719-1.011c-17.711-3.211-34.423-10.555-48.936-24.571C70.549,540.56,52.874,486.8,48.294,431.465c-5.125-55.614-.862-111-5.4-144.112-1.974-17.82-4.181-31.551-5.067-44.609a140.065,140.065,0,0,1-.068-19.527q0.176-2.487.463-5.032,0.145-1.273.319-2.566t0.381-2.606c0.551-3.5,1.276-7.131,2.208-10.933,6.712-28.676,26.913-69.043,61.6-108.214,33.982-38.748,84.105-75.66,130.32-82.048a110.279,110.279,0,0,1,33.742-.409,107.819,107.819,0,0,1,15.882,3.55q1.941,0.589,3.861,1.249t3.818,1.387q3.8,1.455,7.5,3.174c19.848,9.123,37.576,23.821,55.34,40.479h0Z" transform="translate(-37.438 -10.313)"/>
</svg>
